name D:\school\WTK\thesis\model\3dpredictsim\Results\Batchsim_tmt_linear_v2\Pog_s1_tmt_aCst_d00_k1000_ig24.mot
datacolumns 128
datarows 4
range 0.52695724 0.55857468
endheader
time	pelvis_tilt	pelvis_list	pelvis_rotation	pelvis_tx	pelvis_ty	pelvis_tz	hip_flexion_l	hip_adduction_l	hip_rotation_l	hip_flexion_r	hip_adduction_r	hip_rotation_r	knee_angle_l	knee_angle_r	ankle_angle_l	ankle_angle_r	subtalar_angle_l	subtalar_angle_r	tmt_angle_l	tmt_angle_r	mtp_angle_l	mtp_angle_r	lumbar_extension	lumbar_bending	lumbar_rotation	arm_flex_l	arm_add_l	arm_rot_l	arm_flex_r	arm_add_r	arm_rot_r	elbow_flex_l	elbow_flex_r	pro_sup_l	pro_sup_r	glut_med1_l/activation	glut_med2_l/activation	glut_med3_l/activation	glut_min1_l/activation	glut_min2_l/activation	glut_min3_l/activation	semimem_l/activation	semiten_l/activation	bifemlh_l/activation	bifemsh_l/activation	sar_l/activation	add_long_l/activation	add_brev_l/activation	add_mag1_l/activation	add_mag2_l/activation	add_mag3_l/activation	tfl_l/activation	pect_l/activation	grac_l/activation	glut_max1_l/activation	glut_max2_l/activation	glut_max3_l/activation	iliacus_l/activation	psoas_l/activation	quad_fem_l/activation	gem_l/activation	peri_l/activation	rect_fem_l/activation	vas_med_l/activation	vas_int_l/activation	vas_lat_l/activation	med_gas_l/activation	lat_gas_l/activation	soleus_l/activation	tib_post_l/activation	flex_dig_l/activation	flex_hal_l/activation	tib_ant_l/activation	per_brev_l/activation	per_long_l/activation	per_tert_l/activation	ext_dig_l/activation	ext_hal_l/activation	ercspn_l/activation	intobl_l/activation	extobl_l/activation	glut_med1_r/activation	glut_med2_r/activation	glut_med3_r/activation	glut_min1_r/activation	glut_min2_r/activation	glut_min3_r/activation	semimem_r/activation	semiten_r/activation	bifemlh_r/activation	bifemsh_r/activation	sar_r/activation	add_long_r/activation	add_brev_r/activation	add_mag1_r/activation	add_mag2_r/activation	add_mag3_r/activation	tfl_r/activation	pect_r/activation	grac_r/activation	glut_max1_r/activation	glut_max2_r/activation	glut_max3_r/activation	iliacus_r/activation	psoas_r/activation	quad_fem_r/activation	gem_r/activation	peri_r/activation	rect_fem_r/activation	vas_med_r/activation	vas_int_r/activation	vas_lat_r/activation	med_gas_r/activation	lat_gas_r/activation	soleus_r/activation	tib_post_r/activation	flex_dig_r/activation	flex_hal_r/activation	tib_ant_r/activation	per_brev_r/activation	per_long_r/activation	per_tert_r/activation	ext_dig_r/activation	ext_hal_r/activation	ercspn_r/activation	intobl_r/activation	extobl_r/activation	
          0.52695724	         -2.60324516	         -0.91873398	         -4.57809545	          0.65869655	          0.87227769	          0.00157367	         26.43079969	         -0.27660823	         -2.20245919	        -17.96807139	          1.33641001	          5.64426734	         -8.17215234	         -5.44114976	          5.94556347	         -7.86452969	          3.97672816	          7.40792490	          0.03679005	          1.07105875	         -0.10265054	         26.14955756	          0.48327198	          3.11812373	          1.55877023	         -8.46891467	        -13.45058269	         14.71157143	          3.43908909	        -13.46022737	         10.94204266	         15.93759468	         24.64726758	         86.51662706	         86.51662706	          0.13059317	          0.05000775	          0.09836266	          0.05000225	          0.05000319	          0.05002164	          0.05878285	          0.05878390	          0.05878332	          0.05000285	          0.05001315	          0.05485210	          0.05878801	          0.18966925	          0.13964315	          0.13188481	          0.05001505	          0.05010171	          0.05878109	          0.06909881	          0.10710209	          0.13764171	          0.05000217	          0.05000190	          0.13092684	          0.05001067	          0.06593233	          0.05000725	          0.09070969	          0.10790085	          0.06815095	          0.05878246	          0.05878206	          0.05878257	          0.05000085	          0.05001153	          0.05692654	          0.48012750	          0.27297377	          0.16892183	          0.29080670	          0.50023762	          0.29427421	          0.05191829	          0.14344573	          0.14428039	          0.29306271	          0.09031538	          0.08124631	          0.27125677	          0.15522088	          0.09140703	          0.05001238	          0.05000147	          0.05000128	          0.05000192	          0.09551030	          0.06159504	          0.05000284	          0.05000376	          0.05001320	          0.05000624	          0.21547985	          0.05003626	          0.05000688	          0.05005389	          0.05002810	          0.05001901	          0.33664276	          0.61911276	          0.05018429	          0.05001716	          0.06910897	          0.25696242	          0.09578517	          0.08293519	          0.05420732	          0.18449385	          0.26388678	          0.21528685	          0.21077180	          0.18549279	          0.25717056	          0.05000027	          0.09629645	          0.13633998	          0.05000170	          0.05000058	          0.05000157	          0.05000012	          0.05000024	          0.05000048	
          0.53749639	         -2.58929512	         -0.97126085	         -4.73514873	          0.67500989	          0.87099271	          0.00144381	         25.92417790	         -0.14651529	         -1.97476028	        -17.81623420	          1.21088328	          5.39859018	         -8.23100871	         -7.47476345	          5.34377293	         -8.49361361	          3.54094361	          8.39316197	          0.05105913	          0.99117067	         -0.08371296	         26.98637431	          0.68093781	          2.94451857	          1.60738663	         -9.59471982	        -13.44980766	         14.51348088	          3.23292716	        -13.47628409	         11.15514542	         16.00398070	         25.47777470	         86.51662706	         86.51662706	          0.11108195	          0.05558934	          0.09820618	          0.05878193	          0.05468467	          0.05001251	          0.05000048	          0.05000169	          0.05000092	          0.05000130	          0.05013121	          0.05000270	          0.05000606	          0.16133983	          0.19567288	          0.14058750	          0.05000193	          0.05000988	          0.05000295	          0.05878294	          0.13699500	          0.17349983	          0.05000251	          0.05000296	          0.21472013	          0.11224368	          0.15184306	          0.06911852	          0.23952260	          0.26115016	          0.19445462	          0.05000005	          0.05000011	          0.05000002	          0.05000062	          0.05002419	          0.05000179	          0.54734246	          0.29149822	          0.18317765	          0.47609740	          0.54468470	          0.27792929	          0.05000028	          0.12201377	          0.12272372	          0.24927732	          0.07682166	          0.06910764	          0.23072998	          0.13202995	          0.07775038	          0.05001518	          0.05000137	          0.05000144	          0.05000216	          0.08124336	          0.13657842	          0.11144405	          0.05660246	          0.05002230	          0.05000487	          0.18328585	          0.10623325	          0.05116288	          0.05001129	          0.05000653	          0.05000719	          0.28634590	          0.52661460	          0.05545501	          0.05878555	          0.05878443	          0.21857020	          0.12895736	          0.15520185	          0.15517318	          0.15692898	          0.22446013	          0.19005563	          0.17928343	          0.15778403	          0.21874995	          0.05000021	          0.08191038	          0.13341205	          0.05000102	          0.05000028	          0.05000113	          0.05000191	          0.06910830	          0.05000165	
          0.54803553	         -2.56892890	         -1.01014937	         -4.87077272	          0.69158386	          0.86962939	          0.00132327	         25.31726549	         -0.04197522	         -1.71145109	        -17.57053152	          1.07522986	          5.14498540	         -8.86806484	         -9.68809667	          4.65560316	         -9.13512745	          3.08506010	          9.36899804	         -0.03967636	          0.87986070	         -0.13242865	         27.47162471	          0.89722004	          2.74293533	          1.64679018	        -10.73796033	        -13.45631617	         14.33511722	          2.96681116	        -13.49582370	         11.34663730	         16.08779469	         26.29043226	         86.51662706	         86.51662706	          0.27895381	          0.05000156	          0.27930341	          0.05000416	          0.05000261	          0.25355713	          0.07263775	          0.05000172	          0.06377780	          0.05000059	          0.05000184	          0.06910559	          0.09551074	          0.13724068	          0.16644306	          0.14373033	          0.05002049	          0.05887386	          0.05005228	          0.05000262	          0.11653126	          0.14757919	          0.05002382	          0.05000562	          0.18263951	          0.09547431	          0.17730509	          0.05879171	          0.20373626	          0.22213245	          0.16540179	          0.05878481	          0.05878591	          0.05878284	          0.05878206	          0.05878290	          0.05878366	          0.46556498	          0.27223219	          0.15581107	          0.40496496	          0.53782650	          0.23640459	          0.05000017	          0.10378396	          0.10438780	          0.27306212	          0.06534401	          0.05878260	          0.19625876	          0.11230392	          0.06613410	          0.05002157	          0.05000428	          0.05000545	          0.05000101	          0.06910640	          0.15456463	          0.22261437	          0.05912851	          0.05873352	          0.08195073	          0.15590191	          0.09036625	          0.05001247	          0.05023446	          0.05863181	          0.05876894	          0.24356365	          0.47139584	          0.05803777	          0.05000979	          0.05000198	          0.18591404	          0.12698861	          0.13201804	          0.13199470	          0.13348251	          0.19092404	          0.16165979	          0.15249739	          0.13421112	          0.18606780	          0.05000041	          0.10041340	          0.14345047	          0.05000111	          0.05000471	          0.05000210	          0.05000018	          0.05878314	          0.06910704	
          0.55857468	         -2.54495460	         -1.03419888	         -4.98210955	          0.70823229	          0.86816911	          0.00119687	         24.60075125	          0.05915776	         -1.43695252	        -17.23004552	          0.93278087	          4.88605365	         -9.56549637	        -12.06360005	          4.15142097	         -9.70394469	          2.61069563	         10.30084672	         -0.01718737	          0.72278838	         -0.14812659	         27.41892411	          1.11489540	          2.51588350	          1.67772095	        -11.85836478	        -13.47071302	         14.20226369	          2.67227231	        -13.52243905	         11.53786775	         16.16631048	         27.07302794	         86.51662706	         86.51662706	          0.29829044	          0.26466183	          0.35296427	          0.15806461	          0.16552082	          0.21567773	          0.06311192	          0.09064151	          0.06964106	          0.08124304	          0.05877500	          0.05878107	          0.08124092	          0.11673725	          0.18485255	          0.16845552	          0.05000178	          0.05008000	          0.08122657	          0.20829109	          0.18106738	          0.17987501	          0.05000124	          0.05000132	          0.15535229	          0.08121211	          0.15081793	          0.05000783	          0.17329669	          0.18894439	          0.14068966	          0.05000195	          0.05000295	          0.05000022	          0.05000007	          0.05000160	          0.05000148	          0.59345835	          0.29656471	          0.15841097	          0.65051511	          0.61792175	          0.39244654	          0.05000058	          0.08827781	          0.08879141	          0.23226561	          0.05558122	          0.05000026	          0.17459067	          0.09552514	          0.05625346	          0.06906135	          0.05000132	          0.05000107	          0.05000143	          0.05878584	          0.18398555	          0.23845632	          0.05030107	          0.05001699	          0.06971139	          0.13260950	          0.07751123	          0.05000311	          0.05000437	          0.05000297	          0.05000344	          0.20717343	          0.42624844	          0.05000035	          0.05000142	          0.05000078	          0.15813700	          0.10802002	          0.11229607	          0.11227969	          0.11353914	          0.16239852	          0.13750651	          0.12971356	          0.11416010	          0.15826874	          0.05120593	          0.10202727	          0.12201849	          0.09394980	          0.16108700	          0.05007554	          0.07727375	          0.05000053	          0.05878199	
